<svg width="33" height="36" viewBox="0 0 33 36" fill="none" xmlns="http://www.w3.org/2000/svg">
<path d="M25.2088 25.1433C24.186 24.1218 22.4661 23.4237 20.0976 23.0697L18.5278 22.8381C17.3356 22.6413 16.4244 22.3394 15.8161 21.9399C15.2926 21.5966 15.0375 21.0326 15.0375 20.2154C15.0375 20.0599 15.0568 19.9184 15.0761 19.777L11.622 23.1996C11.9769 23.858 12.4501 24.4262 13.0441 24.8811C13.6784 25.3675 14.4259 25.7612 15.2657 26.0515C16.0804 26.3327 16.9907 26.5436 17.9699 26.6784L19.5841 26.91C20.809 27.1003 21.6464 27.4336 22.0751 27.9026C22.5047 28.3666 22.7136 28.9133 22.7136 29.5709C22.7136 30.455 22.4099 31.1159 21.7856 31.5898C21.1295 32.0886 20.1773 32.3417 18.9548 32.3417C17.7567 32.3417 16.6954 32.0936 15.801 31.6056C14.889 31.1076 14.05 30.3839 13.3058 29.4534L12.9853 29.0539L9.94312 31.4732L10.2443 31.8636C11.2033 33.1076 12.3662 34.1167 13.7002 34.8619C15.051 35.6171 16.739 36 18.7182 36C21.1782 36 23.1524 35.3962 24.5837 34.2043C26.0427 32.9918 26.7827 31.3152 26.7827 29.2193C26.7811 27.5585 26.2525 26.1871 25.2088 25.1433Z" fill="#41BBC6"/>
<path d="M20.7897 14.1154L17.1292 17.7423C17.5352 17.6496 17.9967 17.6 18.5177 17.6C19.7376 17.6 20.7553 17.8316 21.5415 18.2898C22.3452 18.7588 22.9585 19.2824 23.3629 19.8448L23.696 20.308L26.578 17.7332L26.2709 17.3618C25.3866 16.3006 24.3404 15.4578 23.1641 14.8565C22.4719 14.5033 21.6707 14.2643 20.7897 14.1154Z" fill="#41BBC6"/>
<path d="M32.7235 2.06985L0 34.3297L0.276459 34.6023L33 2.34239L32.7235 2.06985Z" fill="white"/>
<path d="M7.74555 13.9847C10.0948 15.8325 12.8375 16.2237 16.1356 15.1791L17.0719 14.7796C17.0719 14.7796 17.2582 17.0326 16.5022 18.3337L20.7098 14.1857V10.0237C19.3431 10.0261 17.3286 10.0443 16.8303 10.0485C16.6876 10.1643 16.4015 10.4008 16.2228 10.577C14.8385 11.9409 13.1319 12.3991 11.5437 11.8334C9.88082 11.2412 8.83542 9.64152 8.87989 7.75653C8.92435 5.88973 10.0167 4.30746 11.5966 3.82029C13.3878 3.26613 15.404 3.87571 16.498 5.30083C16.5794 5.4067 16.6633 5.52332 16.7413 5.63167C17.165 6.19659 17.3513 7.1668 17.3513 7.1668H20.8365C20.8365 7.1668 20.61 5.70281 20.3792 5.19165C19.208 1.65408 15.4904 -0.498071 11.3071 0.0991055C7.16581 0.688011 4.36186 4.62011 4.92231 9.05096C5.17569 11.0493 6.12544 12.7093 7.74555 13.9847Z" fill="white"/>
<path d="M9.54606 18.2551L8.99987 17.6232C8.00229 17.586 7.00723 17.5917 5.9568 17.5984L5.18408 17.6008C5.92492 20.6132 8.37733 22.6909 11.5647 23.2004L15.7379 19.0863C13.5003 20.3742 10.8666 19.8812 9.54606 18.2551Z" fill="white"/>
</svg>
