<svg width="13" height="13" viewBox="0 0 13 13" fill="none" xmlns="http://www.w3.org/2000/svg">
<path d="M5.5 12.5V8.5C5.5 7.94772 5.05228 7.5 4.5 7.5H0.5V11.5C0.5 12.0523 0.947715 12.5 1.5 12.5H5.5Z" stroke="black"/>
<path d="M7.5 12.5H11.5C12.0523 12.5 12.5 12.0523 12.5 11.5V7.5H8.5C7.94772 7.5 7.5 7.94772 7.5 8.5V12.5Z" stroke="black"/>
<path d="M1.5 0.5H5.5V4.5C5.5 5.05228 5.05228 5.5 4.5 5.5H0.5V1.5C0.5 0.947715 0.947715 0.5 1.5 0.5Z" stroke="black"/>
<path d="M7.5 0.5V4.5C7.5 5.05228 7.94772 5.5 8.5 5.5H12.5V1.5C12.5 0.947715 12.0523 0.5 11.5 0.5H7.5Z" stroke="black"/>
</svg>
