<svg width="13" height="13" viewBox="0 0 13 13" fill="none" xmlns="http://www.w3.org/2000/svg">
<path d="M0.5 3.5H4.5V0.5H1.5C0.947715 0.5 0.5 0.947715 0.5 1.5V3.5Z" fill="#808080"/>
<path fill-rule="evenodd" clip-rule="evenodd" d="M4.5 0.5V3.5H12.5V1.5C12.5 0.947715 12.0523 0.5 11.5 0.5H8.5H4.5Z" fill="#808080"/>
<path d="M4.5 12.5H0.5V9.5M4.5 12.5H8.5H12.5V9.5M4.5 12.5V9.5M4.5 3.5H0.5M4.5 3.5V0.5M4.5 3.5V9.5M4.5 3.5H12.5M4.5 3.5V6.5M4.5 6.5H12.5V3.5M4.5 6.5H0.5V3.5M0.5 3.5V1.5C0.5 0.947715 0.947715 0.5 1.5 0.5H4.5M0.5 3.5V9.5M12.5 3.5V1.5C12.5 0.947715 12.0523 0.5 11.5 0.5H8.5H4.5M12.5 3.5V9.5M0.5 9.5H4.5M4.5 9.5H12.5" stroke="black"/>
</svg>
